<?xml version="1.0" encoding="utf-8"?>
<!-- Generator: Adobe Illustrator 26.3.1, SVG Export Plug-In . SVG Version: 6.00 Build 0)  -->
<svg version="1.1" id="b759170a-51c3-4e2f-999d-77dec9fd6d11"
	 xmlns="http://www.w3.org/2000/svg" xmlns:xlink="http://www.w3.org/1999/xlink" x="0px" y="0px" viewBox="0 0 1140.6 787.3"
	 style="enable-background:new 0 0 1140.6 787.3;" xml:space="preserve">
<style type="text/css">
	.st0{opacity:0.1;fill:#78C8CF;enable-background:new    ;}
	.st1{fill:#7A5471;}
	.st2{fill:#9BEBFA;}
	.st3{fill:#FFFFFF;}
	.st4{fill:#FFA5B1;}
	.st5{fill:#4D4D4D;}
	.st6{fill:#FE4141;}
	.st7{fill:#FFCDBD;}
</style>
<path class="st0" d="M8.8,414.5c20.2-32.9,65.7-27.2,98.1-10s64.6,42.9,100.2,37.9c30-4.2,54.6-30.3,67.9-60.5s17.2-64.2,20.9-97.5
	c4.7-41.9,9.4-83.8,14.1-125.7c1.7-15.3,3.8-31.5,12.4-43.6c11.4-16,32.3-20.9,50.1-16.1s33.1,17.7,46.1,32.1
	c41.7,46.1,65.4,108.4,101.9,159.7c7.4,10.4,15.8,20.8,26.9,25.8c16,7.2,34.4,2.1,50-6c51-26.3,85.3-79.9,118.9-130
	c16.4-24.3,36.3-50.4,63.6-53c28.7-2.8,53.6,21.6,70.4,47.5c54.1,83.2,65.7,196.9,131,269.5c8.1,9,17.1,17.3,27.4,22.9
	c3.4,1.8,6.9,3.4,10.6,4.7c57,19.7,76,98.9,33.8,145.9c-0.9,1-1.8,2-2.8,3c-6.3,6.6-13.3,12.9-21.8,14.8c-7.9,1.8-16-0.3-23.8-2.5
	c-49.9-14.5-99.1-36.8-150.7-35.7c-50.2,1-97.7,24.2-147.3,32.5c-33.3,5.6-67.3,4.5-101,3.3c-112.3-4-224.6-8.7-336.9-14.1
	c-55.7-2.6-111.5-5-167.2-7.8c-42.9-2.2-70.3-7.1-75.2-57C22.1,510.7-17.1,456.7,8.8,414.5z"/>
<g>
	<g>
		<path class="st1" d="M246.5,665c-0.6,0-1.1-0.3-1.5-0.7c-0.2-0.2-19.2-24.6-31.3-58.1c-16-44.5-12.3-84.8,10.5-116.6
			c57.9-80.4,50.5-120,43.3-158.3c-0.6-3.4-1.3-6.7-1.8-10.1c-0.2-1.1,0.5-2.1,1.6-2.2c1.1-0.2,2.1,0.5,2.2,1.6
			c0.6,3.3,1.2,6.7,1.8,10c7,37.2,14.9,79.5-44,161.3c-27.9,38.7-20.9,82.8-10.1,112.9c11.8,32.9,30.5,56.8,30.7,57.1
			c0.7,0.8,0.5,2.1-0.3,2.7C247.3,664.9,246.9,665,246.5,665z"/>
	</g>
	<g>
		<path class="st1" d="M246.5,665c-0.3,0-0.6-0.1-0.9-0.2c-0.8-0.4-20.7-10.6-40.9-32.2c-18.6-20-40.9-53.9-40.7-101.9
			c0-18,6.3-31.7,12.9-46.3c11.5-25.2,24.5-53.8,7.1-113.6c-0.3-1,0.3-2.1,1.3-2.4c1-0.3,2.1,0.3,2.4,1.3
			c17.7,61.1,4.4,90.4-7.3,116.3c-6.4,14.2-12.5,27.5-12.5,44.7c-0.1,46.8,21.5,79.8,39.7,99.2c19.7,21.1,39.6,31.3,39.8,31.4
			c1,0.5,1.3,1.7,0.9,2.6C247.8,664.7,247.2,665,246.5,665z"/>
	</g>
	<g>
		<g>
			<path class="st2" d="M169.4,166.1c0.5-74.3,48.7-107.4,108-107c59.2,0.4,107.1,34.2,106.6,108.4c-0.5,72.7-69.9,159.1-106,162.6
				c1.9,2.8,3.7,6,5.1,8.5c1.1,2-0.4,4.5-2.8,4.4l-17.8-1c-2.3-0.1-3.6-2.7-2.3-4.6l5.6-8.6C222.5,317.1,168.9,235,169.4,166.1z"/>
		</g>
		<g>
			<path class="st3" d="M322.3,103.7c19.2,8.1,58.8,40.6,16.6,112.1c-0.4,0.7-1.8,0.4-1.6-0.4c7.3-43.6,7.6-82.5-16.1-110.7
				C320.7,104.1,321.5,103.4,322.3,103.7z"/>
		</g>
		<g>
			<path class="st1" d="M278.2,333.5c0.7-0.1,1.4-0.2,2.2-0.3c1.6-0.3,2.7-1.8,2.4-3.4c-0.3-1.6-1.8-2.7-3.4-2.4
				c-5,0.8-8.7,0.1-14.8-1.1c-1.6-0.3-3.1,0.7-3.4,2.3c-0.3,1.6,0.7,3.1,2.3,3.4C269,333.2,273.2,334,278.2,333.5z"/>
		</g>
	</g>
	<g>
		<g>
			<path class="st4" d="M75.3,271.8c-12.7-62.5,22-98.8,71.8-109c49.8-10.1,96,9.8,108.7,72.3c12.4,61.1-30.6,146-60.3,155.3
				c2.1,2.1,4.1,4.4,5.8,6.2c1.3,1.5,0.4,3.9-1.5,4.2l-15.1,2.3c-1.9,0.3-3.5-1.6-2.8-3.4l3.2-8.2
				C146.6,389.2,87.1,329.8,75.3,271.8z"/>
		</g>
		<g>
			<path class="st3" d="M190,188.5c17.7,2.3,58,20,39.6,88.9c-0.2,0.7-1.4,0.7-1.5,0c-4-37.7-12.7-70-38.8-87.8
				C188.8,189.2,189.3,188.4,190,188.5z"/>
		</g>
		<g>
			<path class="st1" d="M186,395.2c4.5-0.3,8-0.7,12-2.9c1.6-0.8,2.1-2.8,1.3-4.4c-0.8-1.6-2.8-2.1-4.4-1.3
				c-3.1,1.7-5.5,1.9-10.7,2.2c-1.8,0.1-3.1,1.7-3,3.4c0.1,1.8,1.7,3.1,3.4,3C185.2,395.2,185.6,395.2,186,395.2z"/>
		</g>
	</g>
</g>
<g>
	<g>
		<path d="M1078.7,718.3c-0.1-0.3-0.2-0.5-0.3-0.7c-0.4-0.8-0.9-1.2-1.5-1.2c-1-0.1-2,1-2.8,2.1c-0.4,0.5-0.7,0.9-1.1,1.2
			c-1.4,1.2-2.9,1.9-4.5,2.1c-2.9,0.5-6.2-0.5-10.1-2.9c-7.4-4.5-13.1-11.3-16.6-16.2c-8.1-11.5-13-25.3-16.8-37.3
			c-1-3.2-1.9-6.4-2.9-9.7c-6.1-20.6-12.4-41.9-27.7-57.1c6.1-1.9,10.5-5.5,13.1-10.6c4.2-8.1,4-25.1-4.1-30.7
			c-2.4-1.6-5.2-2.1-8-2.3c0.6-13.2-1.6-27.2-7-44.2c-0.6-1.9-1.2-3.8-1.8-5.7c-4.1-13.1-8.4-26.7-15.5-38.3c-1.2-2-2.5-3.9-3.7-5.8
			c-2.6-3.8-5.2-7.8-7.1-12.1c-2.2-5-3.5-10.3-4.9-15.5c-0.2-0.6-0.3-1.2-0.5-1.8c11.4,6.4,26.5,8.5,34.7,9.1
			c15.2,1.2,26.6-0.9,33.7-6c0.8,3.4,7.1,10.8,8.1,11.7c4,3.6,8.9,5.3,14.4,5.1c10.6-0.5,19.9-8.2,22.1-18.2
			c2.7-12.4-5-24.7-17.2-27.3c-11.8-2.6-25.2,5.6-27.7,16.9c-0.3,1.3-0.4,2.7-0.4,4.2c-13.3-5.1-27-11.2-37.5-22.4
			c-5.5-5.9-10.2-12.6-14.8-19c-2.8-4-5.8-8.2-8.9-12.1c-9.3-11.8-19.2-19.6-30.1-23.7c-14.1-5.3-29.6-5.3-41.6-4.8
			c-14.5,0.7-29.6,2-42.6,10.4c-9.7,6.3-18.3,14.7-26.6,22.9c-2,1.9-3.9,3.9-5.9,5.8c-10.8,10.3-17,22.9-22.2,34.9
			c-6.1,14.2-10.8,29.1-14,44.4c-1.5,7.3-2.8,15.5-3.9,25.5l0,0.3c-0.5,4.6-1,9.4-2.5,13.9c-1.1,3.3-2.8,6.2-4.6,9.3
			c-0.6,1-1.2,2-1.8,3.1c-7.6,13.8-6.9,29.5-5.3,45.7c-0.1,0.1-0.2,0.1-0.4,0.2c-5.1,2.5-8.8,7-10.5,12.6c-2,6.4-1.2,13.6,2.2,19.7
			c2.2,4,5.3,7,9,8.9c-6.2,5.4-11.7,13.7-16.8,25.2c-4.2,9.5-7.4,20.3-10.1,33.9c-0.9,4.6-1.4,9.5-1.8,14.2
			c-0.7,7.6-1.4,15.5-4.2,22.7c-2,5.2-6.1,11.8-14.4,13.3c-5.1,0.9-9.7,1-13.7,0.1c-2.1-0.4-4-1.2-6.1-2.5c-1.7-1-2.9-1.1-3.7-0.5
			c-1.9,1.6-0.4,7.2,0.8,10.5c1.8,5.3,4.5,10.4,7.9,15.2c6.5,9.1,15.4,16.9,25.9,22.4c10.5,5.5,22.5,8.3,35.2,8.3
			c9.8,0,20-1.7,30.3-5c13.4-4.3,26.1-11.2,37.7-20.4c0.1,0.1,0.3,0.1,0.4,0.1c7.3,1.5,21.4,3.1,33.9-2.6c2.3-1,4.7-2.6,6.7-4.4l4,2
			c0.2,0.1,0.4,0.2,0.5,0.3c0.7,0.4,1.4,0.7,2.2,0.9c1.2,0.2,2.4,0,3.6-0.2c3.8-0.8,7.4-2.2,11-3.6c1.7-0.7,3.5-1.4,5.5-2.3
			c1.4,2.2,3.1,4.3,5,5.9c6.3,5.3,13.1,5.4,20.2,5.5c1.2,0,2.3,0,3.5,0.1c28.7,18.9,68.1,23.9,105.5,13.3c14.3-4,25.5-9.2,34.2-15.9
			c5.6-4.2,9.8-9,12.6-14c0.2-0.3,0.4-0.7,0.7-1.1C1078.1,722.2,1079.4,720.2,1078.7,718.3z M1024.1,433.2L1024.1,433.2
			L1024.1,433.2L1024.1,433.2z"/>
		<path d="M784.7,249.7c-3.7-17.9-16.6-33.5-34.6-41.9c-8.6-4-17.9-6-26.9-5.9c-9.2,0.2-18.5,2.5-26.9,6.9
			c-15.2,7.8-27.2,21.2-33.3,37c-4.5-17.7-17.4-32.9-34-40c-19.9-8.6-44.6-4-61.5,11.3c-8.6,7.8-14.5,18.1-17.2,29.9
			c-2.6,11.7-2.1,24.5,1.5,37.2c6,20.9,20.3,40.8,42.6,59c10.5,8.6,21.6,16,30.1,21.4l2,1.3c9.3,6,18.8,12.1,25.9,20.7
			c1.3,1.6,2.5,3.2,3.5,4.9c-2.4,2.2-4.7,4.5-6.9,6.8c-1,1-2,2.1-3,3.1c-0.2,0.2-0.5,0.5-0.7,0.7c-1.5,1.4-3.5,3.3-2.5,5.6
			c0.9,2.1,3.5,2.6,5.4,2.9l0.6,0.1c1.6,0.3,3.2,0.6,4.8,0.7c-2.7,10.7-4.1,20.1-4.5,28.9c-0.4,9.6,0.7,19.7,3.5,30.9
			c4.7,19,13.1,36.6,22.8,55.9l0.9,1.8c8.4,16.8,17.2,34.2,22.2,52.6c4.5,16.4,5.2,32.3,2.1,47.4c-2.3,11.2-7.9,27-21.5,38.2
			c-0.8,0.6-1.6,1.3-2.5,2c-0.4-19.4-4.7-38.3-12.6-54.6c7-0.9,11-3.9,13.8-10.1c4-8.8,3.5-19.3-1.4-27.4
			c-3.5-5.9-8.9-10.3-16.4-13.4c2.9-33.7-15-64.1-30.7-91c-4.5-7.7-8.6-14.6-12.3-21.9c-3.5-6.7-6.9-14-10.5-22.9
			c-6.1-14.9-11.8-28.2-20.2-40.2c-7.4-10.4-16.5-18.5-27.3-24c-12.8-6.6-28.5-10.6-45.4-11.6c-16.1-1-31.7,1.1-46.4,6.1
			c-12.1,4.1-24.1,10.8-35.7,19.9c-11,8.6-20.8,18.6-30.3,28.3c-5,5.1-11,10.2-19.1,16.3c-6.8,5.1-14,8.3-21.5,9.5
			c-3.6,0.6-7.4,0.8-11.2,0.5c0.8-2,1.3-4,1.6-6c0.9-6.2-0.5-12.6-4-18.1c0-0.1-0.1-0.1-0.2-0.2c0-0.1-0.1-0.1-0.1-0.2
			c-6.9-10.6-20-15.5-31.9-12c-11.9,3.5-21,13.6-22,24.5c-1.2,12.4,6.6,24.8,18.6,29.4c10.8,4.1,23.6,1.2,31.8-7.4
			c1.4-1.5,2.6-3.1,3.7-4.7c0.3,0.5,0.7,1,1.1,1.5c1.1,1.4,2.2,2.5,3.3,3.5c2.3,2.2,4.6,4.1,7.1,5.8c5,3.5,10.7,6.3,16.8,8.4
			c11.6,3.9,25,5.2,40.9,3.9c6.6-0.5,13.3-1.6,19.9-3.1c-1.8,4.7-3.3,9-4.7,13c-7.9,23.4-13.3,47.7-16.2,72.3
			c-1.6,13.5-2.4,27.3-2.4,41.1c-9.5,4.6-16,13.1-17.5,22.9c-1.5,10.2,2.8,21.1,10.4,26.6c2.2,1.5,4.6,2.3,7.4,2.1
			c-8.1,26.1-9.2,62.1,13.6,79.8c-3.7,1.1-7,3.1-10.4,5.1l-0.7,0.4c-6.7,4.1-13.2,5.7-19.7,4.8c-0.7-0.1-1.5,0.1-2.2,0.7
			c-0.6,0.5-1,1.2-1,2c-0.3,9.4,4.1,19.3,11.4,26c5.2,4.7,11.3,7.2,17.5,7.2c1,0,2.1-0.1,3.1-0.2c6.4-0.9,11.4-4.4,14.7-10.2
			c4.5-8,5-19.8,1.3-29.1c6.4,1.3,13.5,0.8,21.1-1.5c5.2,2.4,10.8,4.5,16.6,6.4c-4.4,6.7-4.6,13.4-0.5,18.7c5.6,7.2,16,9,24.5,9.7
			c9.7,0.8,26.8-0.8,34.4-8.8c2.9-3.1,4.2-6.9,3.6-11.3c1.4,0,2.7-0.1,4.1-0.1c3.3-0.1,6.6-0.3,9.9-0.5c-0.5,4.9,1,9.1,4.3,12.4
			c8.6,8.5,27.8,9.3,37.8,7.9c8.2-1.2,19.5-3.9,22.8-13.5c2-5.7-0.1-12.5-5-16.6c5.1-1.4,10-3,14.7-4.7c6.3,2,12.4,2.8,18.2,2.4
			c-3.8,8.7-5.6,20.8-1.1,29.4c2.5,4.9,6.8,7.9,12.6,8.9c4.5,0.8,15.8,1.9,23-5.5c5.6-5.8,10.7-15.8,8.7-24.1
			c-0.3-1.4-1.4-2.1-2.9-2c-6,0.3-10.7-3.4-15.3-6.9c-1-0.8-2.1-1.6-3.1-2.4c-1.9-1.4-3.8-2.7-5.8-3.5c2.2-2.3,4.3-5.2,6.4-9.1
			c5.3-9.9,6.3-21.4,6.6-30.4c0-1.1,0.1-2.1,0.1-3.2c12.2-7.5,21.5-20.5,26.1-36.5c4.2-14.5,4.8-30.7,1.7-47
			c-3.7-19.5-12.2-37.9-20.6-55c-1.5-3-3-6.1-4.5-9.1c-7.4-14.9-15-30.3-20.1-46.3c-3.5-11.2-5.5-21.3-6.1-30.7
			c-0.7-11.3,1.1-22.2,3-31.3c0.3-1.5,0.6-2.9,0.9-4.4l0.4-1.8c2,0,3.9-0.1,5.7-0.3c2.4-0.3,4.7-0.9,6.8-1.8c1-0.4,2.2-1,2.4-2.5
			c0.2-1.4-0.6-2.4-1.3-3.2l-1.2-1.4c-1.3-1.5-2.7-3.1-3.9-4.7c-0.6-0.9-1.4-1.9-2-3c-0.3-0.5-0.5-1-0.8-1.5
			c-0.3-0.5-0.5-1.1-0.8-1.6c1.1-1.1,2.3-2.1,3.4-3.1c4-3.3,8.2-6.3,12.5-9.4c10.4-7.4,20.9-14.3,29.9-20.2c2.5-1.6,4.6-3,6.9-4.5
			l1.3-0.8c0.1,0,0.2-0.1,0.3-0.1c1.6-1,3.2-2,4.7-3c3.1-2,6.3-4,9.4-6.1c5.2-3.6,9.7-6.9,13.8-10.2c9.8-7.8,17.6-15.7,23.8-23.9
			C782.7,291.4,788.7,269.3,784.7,249.7z"/>
		<g>
			<path class="st5" d="M483.6,727.9c-5.4,7.1-5.3,14.9,3.2,19.3c5.5,2.8,11.9,3.8,18.1,4.2c10.1,0.6,34-1.4,30.9-16.6
				C518.1,734.8,500.5,732.7,483.6,727.9z"/>
			<path class="st5" d="M608.1,725.9c-15.9,4-32.4,6.5-48.7,7.8c-3.8,17.1,22.8,18.6,33.7,17.5c6.5-0.7,14.5-2,19.3-6.7
				C619.1,738,614.4,730,608.1,725.9z"/>
		</g>
		<g>
			<path class="st3" d="M329.4,400.3c-4.3-1.3-8.8-1.3-13.2-0.4c-4.2,0.8-7.4,2.7-10.8,5.3c-5.9,4.6-8.8,11.6-8.3,19.1
				c0.7,11,9.1,20.5,20,22.4c9.5,1.7,19.4-2.5,25-10.3c5.6-7.8,5.9-17.7,0.9-25.9C339.8,405.7,335.1,402,329.4,400.3z"/>
		</g>
		<g>
			<path class="st3" d="M499.8,690c8-9.9,13.3-21.6,16.8-33.8c3.4-12,3.7-23.9,5.5-36.1c-6.2-6.9-8.8-15.9-7.3-24.8
				c-0.5,0.2-0.9,0.4-1.4,0.7c-4.9,2.6-9.6,5.8-14.5,8.4c-10.6,5.5-21.6,9.8-33,13.3c-0.2,0.1-0.4,0.1-0.6,0.1
				c-11.9,4.1-24.8,5.9-36.2,11.3c-3.3,1.6-7.1,3.7-11,5c-0.7,0.2-1.7,5.5-1.9,6.3c-0.6,2.2-1.2,4.5-1.7,6.8c-1,4.6-1.7,9.3-2.1,14
				c-0.7,9.3-0.2,18.8,2.5,27.7c1.5,5,3.7,9.9,6.6,14.2c1.5,2.2,3.1,4.3,5,6.2c1.7,1.8,3.7,3.4,5.9,4.7c4.1,2.4,8.8,3.8,13.5,4
				c8.3,0.3,16.5-2.2,24.1-5.4C481.5,707.7,491.9,699.8,499.8,690z"/>
			<path class="st3" d="M435.1,720.4c-2.6-2.9-8.2-1-11,0.6c-3.8,2.1-7,5.4-10.9,7.2c-4.8,2.3-10,3.3-15.3,3
				c0.2,14,10.8,27,26.1,25.2c8-0.9,12.8-7.7,14.2-15.2c0.7-3.6,0.7-7.3,0.2-11C437.9,727.4,437.2,722.7,435.1,720.4z"/>
			<path class="st3" d="M669.3,697.7c2.6-8.8,3-18.4,2.8-27.5c-0.4-19.2-4.8-38.1-12.9-55.5c-0.1-0.1-0.1-0.3-0.1-0.4
				c-19.9,0.6-38.7-5.5-56.9-12.8c-5.8-2.3-11.5-4.7-17.4-6.8c1.9,7.1-0.9,16.5-4.7,21.7c-2.5,3.5-5.8,6.2-9.5,8.4
				c2,11.7,3,23.3,6.8,34.7c3.7,11.1,9.1,21.7,16.4,30.9c14.2,17.8,38.8,31.7,62,26.7C662.9,713.6,667.2,704.9,669.3,697.7z"/>
			<path class="st3" d="M675.7,730.1c-3.6-2.3-6.5-5.6-10.1-8c-1.5-1-3.8-2.5-5.6-2.7c-5.5-0.5-8.6,3.7-10,8.3
				c-1.4,4.4-1.8,9.3-1.5,13.9c0.4,7.3,4.3,13.3,11.8,14.7c6.1,1.1,13.4,0.7,18.1-3.8c4.5-4.2,8.6-12.4,8-18.8
				C682.5,733.5,679,732.2,675.7,730.1z"/>
		</g>
		<g>
			<path class="st6" d="M663.7,407.1c1-0.2,2-0.4,2.9-0.7c0.3-0.1,0.5-0.2,0.8-0.3c-0.2-0.2-0.3-0.3-0.5-0.5
				c-0.5-0.5-0.9-1.1-1.4-1.6c-1-1.1-1.9-2.3-2.8-3.5c-1.3-1.8-2.9-3.9-3.5-6.2c-0.1,0-0.3,0-0.4,0c-1.8,1.9-3.7,3.8-5.5,5.6
				c-1.2,1.2-2.5,2.5-3.7,3.7c-0.6,0.6-1.2,1.2-1.8,1.8c-0.1,0.1-0.5,0.4-0.8,0.7c0.4,0.1,1,0.2,1.3,0.3c1,0.2,2.1,0.4,3.1,0.6
				c2.1,0.3,4.2,0.5,6.2,0.6C659.6,407.6,661.7,407.5,663.7,407.1z"/>
			<path class="st6" d="M663.2,385.6c9.3-7.6,19.5-14.2,29.5-20.8c7.2-4.8,14.5-9.5,21.8-14.1c0.1-0.1,0.2-0.2,0.3-0.2
				c2.2-1.4,4.3-3,6.6-4.5c17.7-11.8,35.3-25,47.1-43c10.9-16.7,17-38.4,10.5-57.9c-5.6-16.7-19.7-29.6-36.1-35.3
				c-8.2-2.9-17-4-25.6-2.8c-8.7,1.2-17,4.4-24.3,9.1c-14.7,9.6-25.7,25.2-28.8,42.6c-0.5,2.6-4,2.2-4-0.4c-0.1-2.5-0.3-5.1-0.8-7.6
				c-3.7-20.5-20.1-38.5-40.5-43.2c-20.2-4.6-42.9,4.1-55.2,20.7c-14.4,19.5-12.7,46.6-2.8,67.7c10.1,21.5,27.6,38.1,46.5,51.9
				c9.5,6.9,19.5,13.1,29.2,19.8c8.7,6,17,12.8,22.7,21.7C660.4,387.9,661.8,386.7,663.2,385.6z"/>
		</g>
		<g>
			<path class="st3" d="M464.4,614.7c0.1-0.1,0.3-0.2,0.4-0.2c11.6-4.1,23.2-8.7,34-14.5c4.9-2.7,9.5-5.9,14.5-8.4
				c4.5-2.2,9.3-3.5,14.2-4.8c10.9-2.9,21.7-4.2,32.9-2.7c7.1,1,14,2.8,20.8,5c0.2,0,0.4,0.1,0.6,0.2c3.3,1.1,6.7,2.3,9.9,3.6
				c18.9,7.2,37.1,15.3,57.5,16.9c6.7,0.5,17.4,2.2,22.1-3.8c6.8-8.7,5.1-22.5-1.9-30.4c-7.3-8.2-18.9-9.9-29.1-11.6
				c-10.2-1.7-20.3-3.5-30.5-5.5c-22.8-4.4-45.7-8.4-69.1-7.2c-20.9,1.1-42,5.6-61.1,14c-9.8,4.3-19.4,9-29.4,12.7
				c-8.5,3.2-17.2,4.9-26,7.1c-10.5,2.6-20.4,8.1-23.6,19.2c-1.6,5.6-1.2,11.8,1.4,17c2,4.2,5.9,9.9,11.1,9.4
				c6.9-0.7,13.2-5.6,19.7-7.8C443.2,619.5,454,617.7,464.4,614.7z"/>
		</g>
		<g>
			<path class="st6" d="M593.2,695.5c-15.7-18-25.9-44.9-25.7-69.1c-4.8,2.2-10,3.6-15.1,4c-9.4,0.8-19.6-1.2-27-7.2
				c0.6,12.5-2.6,26.1-6.3,37.8c-4.1,12.8-10.4,24.9-19.5,34.8c-7.7,8.4-19.5,17.4-32.3,22.4c24.2,10.2,50.5,13.6,76.8,12.7
				c27.5-1,53.5-7.3,80.2-13.2C612,712.7,600.8,704.2,593.2,695.5z"/>
		</g>
		<g>
			<path class="st6" d="M477.8,561.5c21-9.3,44.2-13.9,67.1-14.6c26.1-0.7,51.3,4.7,76.8,9.5c10.2,1.9,22.9,2.6,33.9,6.1
				c0.3-3.2,0.3-6.5,0.2-9.8c-1.5-33.2-21.2-61.7-37.2-89.6c-4.1-7.1-7.9-14.3-11.3-21.8c-3.4-7.5-6.3-15.3-9.5-22.9
				c-5.3-12.5-11.6-25-20.6-35.3c-8.2-9.4-18.7-15.9-30.4-20c-15.4-5.5-31.9-7.9-48.2-6.8c-14.6,0.9-28.9,4.5-42.1,10.9
				c-11.9,5.8-22.6,13.8-32.4,22.7c-5.1,4.6-10,9.4-14.7,14.3c-2.7,2.7-5.2,5.5-8,8.1c-2.9,2.7-6,5.3-9.1,7.8
				c-6.3,5.2-12.7,10.3-20.4,13.3c-6.3,2.5-13.1,3.7-19.9,3.6c1.1,1.1,2.2,2.3,3.4,3.3c2.4,2.2,5.1,4.2,7.9,5.9
				c10.5,6.5,22.5,9.4,34.8,10.2c13.6,0.8,27.4-0.7,40.7-4.1c2.1-5.3,4.4-10.6,6.1-16.1c3.7-12.2,1.1-24.9-2.6-36.8
				c-0.3-1,0.6-2.1,1.6-2.3c1.1-0.2,2,0.6,2.3,1.6c2.1,6.8,4.2,13.7,4.8,20.9c0.6,7.1-0.4,14-2.9,20.6c-2.1,5.9-4.8,11.5-7.1,17.3
				c-2.3,5.7-4.3,11.5-6.2,17.4c-3.9,11.9-7.2,23.9-9.7,36.1c-5,23.5-7.5,47.6-7.6,71.7c8.5-3,17.8-4,26.3-6.8
				C455.3,572,466.5,566.5,477.8,561.5z"/>
		</g>
		<g>
			<path class="st7" d="M531.1,589.9c-4.3,1.1-8.6,2.2-12.7,3.8c0,0.1,0,0.3-0.1,0.4c-5.4,21.5,16.1,34.9,35.1,32.3
				c8.6-1.1,18-5.1,23-12.6c4.5-6.8,3.9-13.6,3.4-20.9c-3.6-1.2-7.2-2.3-10.9-3.2C556.3,586.6,543.8,586.8,531.1,589.9z"/>
		</g>
		<g>
			<path class="st6" d="M946.5,691.2C946.6,691.2,946.6,691.2,946.5,691.2c1.7-1.9,3.3-3.8,4.8-5.7c5.7-7.3,10.5-15.7,12.7-24.8
				c1.6-6.9,1.4-14.2-0.1-21c-2.1-9.5-7.4-17.8-15.8-22.7c-7.8-4.5-17.5-5.5-26.4-4.2c-9.9,1.4-19.5,5.5-27.4,11.6
				c-8.3,6.4-14.8,15-18.1,24.9c-0.5,1.6-2.7,1.5-3.5,0.2c-1.2-2.2-2.5-4.3-4-6.2c-6.6-8.9-15.3-16.4-25.2-21.3
				c-9.7-4.7-21.1-7-31.4-3.1c-5,1.9-9.7,4.9-13.1,9.1c-3.3,4-5.5,8.9-6.6,13.9c-2.3,10.6-0.4,21.9,4.7,31.4
				c11,20.4,31.6,33.7,51.4,44.5c5.1,2.8,10.3,5.5,15.5,8.1c4,2,7.9,3.8,12.1,5.6c2.6,1.1,5.2-0.5,7.7-1.4c4.1-1.4,8-3.1,12-4.8
				c6.4-2.8,12.8-5.7,18.9-9C926.5,709.7,937.4,701.1,946.5,691.2z"/>
		</g>
		<g>
			<path class="st3" d="M1049.8,718.7c-10.8-9.1-18-21.6-23.3-34.6c-11.7-28.9-14.6-61.1-36.1-85.1c-1.6,0.3-3.3,0.5-4.9,0.7
				c-6.2,0.8-12.7,0.4-18.5-0.1c-10.5-1-20.7-4.2-30.3-8.3c-4.8-2.1-9.6-4.4-14.4-6.8c1.1,10.6-7,21.1-16.1,25.8
				c-11.5,6-27.4,5.5-39.3,0.6c-10.2-4.2-16.3-15.4-14-26.3c1.5-7.1,6.2-13.6,12.4-17.4c-17.7,1-34.4,8.6-50.2,16.5
				c-6.7,3.3-13.3,6.7-20,10.1c-5.8,3-11.6,6.8-17.8,9c-2.1,0.7-4.3,1.2-6.6,1.3c-0.6,0-5.3-0.6-5.4-0.5c-4.2,5.3-8.5,10.2-12,16.1
				c-3.6,6.2-6.5,12.8-8.8,19.6c-4.8,14.1-6.9,28.3-8.5,43c-1.2,11.5-3.7,25.2-14.7,31.4c-5.6,3.2-15.7,4.4-23.4,2.1
				c10.1,13.1,31.9,17.4,45.7,8.3c1.3-0.9,2.9,0.8,1.7,2c-8.3,7.2-19.4,6.2-29.4,4c-9.5-2.1-16.8-7.2-21.4-15.7
				c-0.4-0.2-0.9-0.5-1.3-0.8c5.5,20.8,23.4,37.6,43.6,44c39.1,12.6,81.5-8.3,107-38c-2.4-1.3-4.8-2.7-7.2-4.1
				c-10.4-6.2-20.5-13.2-29.1-21.9c-1.8-1.8-3.5-3.7-5.2-5.6c-4.4,0-8.9-0.7-12.6-1.6c-8.9-2.1-15.7-7.5-19.6-15.9
				c-3.6-7.9-4-17.6,1.8-24.7c4.2-5.2,10.6-7.2,17-7.1c0.7-2.6,1.7-5.1,3-7.5c5.4-10.3,16.2-17,27.8-18c11.7-1,23.1,3.3,32.7,9.7
				c8.4,5.6,15.9,12.9,21.4,21.5c0-0.1,0.1-0.2,0.1-0.3c4.4-10.3,12-19,21.3-25.1c8.9-5.9,19.3-9.7,30-10.3
				c9.9-0.6,20.1,1.4,28.2,7.4c6.7,5,11,12.1,13.3,19.9c3.1,0.1,6.3,1.3,9.6,3.6c7.9,5.5,12.3,13.9,10.4,23.6
				c-2.8,14.5-18.3,26.4-33,25.3c-1.5,1.9-3,3.6-4.6,5.4c-0.1,0.1-0.2,0.2-0.2,0.3c-2.5,2.7-5,5.3-7.7,7.7c-8.8,8-18.7,14.8-29.4,20
				c-1.1,0.5-2.3,1.1-3.4,1.6c17.4,18.3,42.8,29.1,68.2,31.6c17.9,1.7,36.4,0.2,53.7-4.9c11.3-3.3,24.1-8.7,33.6-16.9
				c-11.1,5.5-25.4,4.8-36.9,1.1c-15.5-5-28-16-34.2-31.1c-0.4-1,1.1-1.7,1.5-0.7c10.9,26.6,51,42.5,74.9,23.7
				C1062.7,726.9,1054.6,722.7,1049.8,718.7z"/>
		</g>
		<g>
			<path class="st7" d="M771.9,651.9c-3.2,7.5-0.8,16.4,4,22.6c5.6,7.3,14.4,9.4,23.3,9.2c-4.4-5.9-7.9-12.4-9.9-19.5
				c-2-7.2-2.4-15-0.9-22.4C781.5,642.1,774.8,645,771.9,651.9z"/>
			<path class="st7" d="M956.9,684.4c10.6-0.6,20.5-6.5,25-16.9c3-7,2.7-15.2-2.7-21c-3.3-3.5-7.3-6.1-11.3-6.6
				c0.3,1.3,0.5,2.7,0.7,4.1c1,8.5,0.1,17-3.1,25C963.4,674.5,960.4,679.6,956.9,684.4z"/>
		</g>
		<g>
			<path class="st5" d="M831,736.4c7.8,1.1,15.9,1.2,23.6-0.8c3.8-1,7.5-2.6,10.5-5.1c-6.2-3.1-12.5-6.3-18.6-9.6
				C841.7,726.5,836.5,731.7,831,736.4z"/>
			<path class="st5" d="M905.6,724.8c-2.1,1-4.3,2-6.5,2.9c1.2,2.4,2.8,4.6,5.4,6.6c5,3.6,9.9,3.3,15.2,3.5c-0.9-0.6-1.7-1.3-2.6-2
				C913,732.4,909.1,728.7,905.6,724.8z"/>
		</g>
		<g>
			<path class="st3" d="M1042.7,446.4c9.8,1.1,19.7-5.9,21-15.9c1.3-10.1-5.8-19.4-16-20.4c-9-0.8-19.6,6.3-20.2,15.7
				C1026.8,434.6,1033.3,445.4,1042.7,446.4z"/>
		</g>
		<g>
			<path class="st6" d="M781.4,553c6.9-3.1,13.5-6.6,20.2-10.2c13.4-7.3,26.6-14.1,41.4-18.1c26.9-7.3,55.9-6.4,82.5,1.9
				c14.2,4.5,26.6,11.8,39.7,18.8c7.7,4.2,15.9,8,24.7,9.5c0.3,0.1,0.6,0.1,0.9,0.1c0.8-15.3-2.5-30.5-6.9-45.1
				c-4.3-14.3-8.9-29.5-16.7-42.3c-3.5-5.7-7.6-11-10.2-17.2c-2.1-5-3.6-10.2-5.1-15.4c-3.2-11.5-5.8-23.6-14.9-32
				c-1.3-1.2,0.8-3.5,2.1-2.3c7.6,6.5,11.1,15.3,13.8,24.6c0,0,0.1,0,0.1,0c5.6,2,10.8,5.2,16.5,7c5.7,1.9,11.8,3,17.8,3.4
				c10.6,0.6,23.9,0.9,33.3-5c-13.2-4.8-25.8-10.2-36-20.2c-9.7-9.5-16.8-21.4-25-32.2c-7.9-10.4-17.1-19.5-29.6-24.2
				c-14.1-5.3-29.8-5.2-44.7-4.2c-15.8,1-29.6,4.2-42,14.4c-5.7,4.6-10.8,9.9-16.1,14.9c-4.9,4.5-10,8.9-14.4,13.9
				c-9.4,10.8-15,25.3-19.9,38.6c-5.5,14.8-9.5,30.2-11.8,45.9c-2,13.3-2.4,25.4-9.4,37.3c-8.2,14-8.1,29.2-6.9,45
				C770.1,557.4,775.9,555.5,781.4,553z"/>
		</g>
		<path class="st3" d="M763.3,599.3c11.2,2.2,20.5-4.2,30.1-9c9.1-4.6,18.1-9.3,27.3-13.7c17.4-8.4,36.4-15.7,56.1-13.5
			c19.4,2.2,36.6,12.4,53.9,20.7c9.7,4.6,19.8,8.9,30.4,10.8c5.6,1,11.2,1.3,16.9,1.4c3.6,0.1,7.5,0.4,11.2,0.2
			c2.6-0.5,5.2-1.3,7.6-2.6c7.3-3.9,10.2-11.5,9.6-19.4c-0.2-3.3-0.9-7.2-2.3-10.2c-2.3-4.8-5.7-5.1-10.4-5.6
			c-5.4-0.6-10.7-1.8-15.9-3.7c-11.7-4.3-22-11.5-33.1-17c-10.3-5.1-21.2-9-32.5-11.5c-22.9-5-47-4.1-69.6,2.2
			c-24.3,6.8-45,21.8-68.1,31.5c-4.6,1.9-9.6,3.2-13.9,5.7c-6.5,3.8-8.8,11.3-7.7,18.4C753.9,590.2,757.5,596.6,763.3,599.3
			C763.3,599.3,763.3,599.3,763.3,599.3z"/>
		<g>
			<path class="st7" d="M856,590.4c-0.3,9.5,8.2,16.5,16.6,18.7c21.1,5.7,44.9-2.4,46.6-26.2c-13.1-6.6-26.3-13.2-41-15.3
				c-1.3-0.2-2.5-0.3-3.8-0.4C863.8,570.3,856.5,578.9,856,590.4z"/>
		</g>
		<g>
			<path class="st3" d="M548.2,532c16.1-3.5,29.4-20.1,32.9-35.4c0.8-3.6,1.2-7.4,0.3-10.9c-0.9-3.6-3.4-6.9-6.9-8
				c-2.1-0.7-4.5-0.6-6.7,0c-10.3,2.6-16.1,13.2-20.6,22.8c-3-8.5-10-15.6-18.5-18.7c-4.5-1.7-10-2.1-13.9,0.7
				c-3.7,2.7-5.1,7.6-5.3,12.2c-0.3,8.2,2.6,16.5,8,22.7C524.3,525.2,537.7,534.2,548.2,532z"/>
			<path class="st3" d="M423.1,437.6c1.7-6.6-1.9-14.6-6.8-18.7c-1.2-1-2.5-1.8-4-2.2c-1.5-0.3-3.2,0-4.3,1
				c-0.7,0.7-1.1,1.6-1.3,2.5c-1,4.3,1.8,8.4,4.5,11.9c-3.7-0.5-7.6,0.7-10.3,3.3c-1.5,1.4-2.6,3.3-2.3,5.3c0.3,1.9,1.8,3.3,3.5,4.2
				c3,1.6,6.6,2.1,9.8,1.3C416.1,445.1,421.9,441.9,423.1,437.6z"/>
			<path class="st3" d="M480.9,467.7c6.2-4.4,8.8-14,7.5-21.2c-0.3-1.7-0.8-3.4-1.9-4.7c-1.1-1.3-2.7-2.3-4.4-2.1
				c-1,0.1-2,0.6-2.9,1.2c-3.9,3-4.4,8.6-4.6,13.5c-2.9-3.1-7.1-4.8-11.3-4.6c-2.2,0.1-4.6,0.9-5.8,2.9c-1.1,1.8-0.8,4.2,0,6.2
				c1.4,3.6,4.2,6.5,7.6,8.2C469.4,469.3,476.8,470.6,480.9,467.7z"/>
			<path class="st3" d="M624.3,540.8c7.6,0.3,15.5-5.7,18.8-12.2c0.8-1.5,1.4-3.2,1.4-4.9c0-1.7-0.8-3.5-2.2-4.4
				c-0.9-0.6-2-0.8-3-0.8c-4.9,0-8.8,4.1-11.9,8c-0.4-4.2-2.7-8.1-6.2-10.5c-1.9-1.3-4.3-2.1-6.3-1.2c-2,0.8-3.2,2.9-3.8,4.9
				c-1.1,3.7-0.7,7.7,1,11.1C614.3,535.1,619.3,540.6,624.3,540.8z"/>
			<path class="st3" d="M486.6,400.3c8.4-5.1,12.8-17.1,11.8-26.5c-0.2-2.2-0.7-4.4-2-6.3c-1.2-1.8-3.3-3.2-5.5-3.2
				c-1.4,0-2.7,0.6-3.8,1.3c-5.3,3.5-6.6,10.6-7.3,17c-3.4-4.3-8.7-6.9-14.1-7c-2.9-0.1-6.1,0.8-7.8,3.1c-1.6,2.3-1.4,5.3-0.6,8
				c1.4,4.7,4.7,8.8,9,11.3C471.7,401.1,481.1,403.6,486.6,400.3z"/>
			<path class="st3" d="M571,407c-5.2,1.7-8.8,6.3-11.5,11c-3.4-6.6-10.4-12-17.8-11.1c-7.6,0.9-13.3,8.6-13.1,16.3
				c0.2,7.6,5.7,14.6,12.6,17.7c6.5,2.9,13.3,4.5,20,6.4c0.2,0.1,0.5,0.1,0.7,0.1c0.2,0,0.4-0.1,0.6-0.2c4.4-2.1,8.6-4.1,12.8-6.6
				c4.6-2.6,9.1-5.7,11.9-10.3c3.2-5.3,3.3-12.3-0.1-17.4C583.7,407.8,576.8,405.1,571,407z"/>
			<path class="st3" d="M457.8,516.9c-3.6,2.4-5.5,7.2-6.7,11.9c-3.9-5.4-10.3-9.1-15.8-7.1c-5.7,2.1-8.6,10-6.9,16.9
				c1.7,6.9,7.2,12.2,13.1,13.9c5.5,1.6,11.1,1.8,16.6,2.5c0.2,0,0.4,0,0.5,0c0.2-0.1,0.3-0.2,0.4-0.3c3-2.6,5.8-5.1,8.6-8
				c3-3.1,5.9-6.7,7.1-11.3c1.4-5.3,0.1-11.7-3.5-15.8C467.7,515.5,461.9,514.2,457.8,516.9z"/>
		</g>
		<g>
			<circle class="st3" cx="815.5" cy="477.1" r="9.8"/>
			
				<ellipse transform="matrix(0.7071 -0.7071 0.7071 0.7071 -54.4838 741.0244)" class="st3" cx="867.3" cy="436.3" rx="11.7" ry="11.7"/>
			
				<ellipse transform="matrix(0.1594 -0.9872 0.9872 0.1594 245.1494 1280.9165)" class="st3" cx="874.7" cy="496.5" rx="12.5" ry="12.5"/>
			
				<ellipse transform="matrix(0.7071 -0.7071 0.7071 0.7071 -26.727 772.8677)" class="st3" cx="919.6" cy="418.7" rx="11.1" ry="11.1"/>
			
				<ellipse transform="matrix(0.9251 -0.3798 0.3798 0.9251 -110.4697 393.9245)" class="st3" cx="943" cy="476.9" rx="9.6" ry="9.6"/>
			<circle class="st3" cx="964.4" cy="523.1" r="11.8"/>
			<circle class="st3" cx="867.3" cy="373.9" r="10.5"/>
			
				<ellipse transform="matrix(0.2284 -0.9736 0.9736 0.2284 221.5704 1116.9672)" class="st3" cx="815.5" cy="418.7" rx="10.6" ry="10.6"/>
			<circle class="st3" cx="934.3" cy="373.9" r="10.2"/>
			<circle class="st3" cx="973.1" cy="418.7" r="8.6"/>
			<ellipse transform="matrix(0.231 -0.973 0.973 0.231 89.0367 1168.948)" class="st3" cx="784" cy="528.2" rx="9.6" ry="9.6"/>
		</g>
	</g>
	<g>
		<path class="st3" d="M589.3,313c15-1.8,22.6-17.2,26.8-30.1c1.6-4.9,2.7-10,3.4-15.1c0.5-3.5,1.5-8.5-0.1-11.8
			c-1.8-3.6-5.4-1.5-7.5,0.7c-4.1,4.1-5.4,10.2-6,15.8c-0.8,7.1-1.2,14.3-0.4,21.5c0.7,6.9,1.7,16.2,6.3,21.8
			c4.4,5.3,11.7,5,16.9,1.2c7.4-5.4,6.5-14.7,10.7-22c-0.9-0.5-1.9-1-2.8-1.5c-4.1,8.4-4.9,25.5,6.6,28.9
			c12.3,3.6,14.3-13.7,14.1-21.6c-0.1-3.6-0.4-9.5-5.1-10.2c-3.6-0.6-6.2,2.8-5.6,6.1c0.9,4.3,5.8,5.3,9.5,5.2
			c6.2-0.3,11.9-3.4,16.7-7.2c-0.9-0.3-1.8-0.6-2.6-0.9c0.5,4.5,1.3,9,2.7,13.3c1.3,4.2,2.8,9.3,5.5,12.7c3.3,4.3,8-0.9,10.4-3.6
			c4.5-5.3,9.1-11.1,10.3-18.1c0.4-2.6,0.5-5.7-1.6-7.6c-2.1-1.8-4.9-1.3-6.5,0.8c-3.5,4.4-3.3,15.9,3.7,16.9
			c4,0.5,8.8-1.1,12.6-2.2c3.9-1.1,8.2-2.2,11.7-4.4c2.9-1.9,8.5-6.8,6.6-10.9c-2.9-6.3-12.2-0.7-15.2,2.3c-5.3,5.2-9.2,15.2-2.5,21
			c5.5,4.7,13.6,1.7,18.4-2.4c1.8-1.6-0.5-4.3-2.4-2.8c-3.6,2.8-10.2,5.9-14.1,1.8c-5.4-5.6,1.2-14.3,6-17.7c2.3-1.7,8.6-3,6.2,1.4
			c-0.9,1.6-2.5,3-4,4c-4.8,3.6-11.9,4.7-17.6,5.8c-1.5,0.3-3.9,1.1-5.4,0.7c-2.6-0.7-3.1-4.6-3-6.7c0.1-0.9,1.6-7.2,3.9-4.3
			c1,1.2-0.1,4.8-0.4,6c-1.5,5-4.7,8.9-8,12.9c-1.2,1.5-2.4,3-3.9,4.2c-1.4,1.1-1.8,1.8-3,0c-0.7-1.1-1.3-2.4-1.8-3.6
			c-2.9-6.3-4.7-13.1-5.4-20c-0.1-1.3-1.7-1.6-2.6-0.9c-4.6,3.5-12.6,8.4-18.8,6c-1.5-0.4-2.3-1.3-2.3-2.8c2.4-1.4,3.8-1,4,1
			c0.5,1.3,0.4,3.3,0.4,4.7c0.1,3.5-0.2,7.2-1.1,10.6c-1.7,6.7-8.7,10.7-13.4,3.6c-4.1-6.2-3.1-14.6,0-21c0.8-1.6-1.9-3.1-2.8-1.5
			c-2.8,5-3.2,10.6-5.5,15.7c-2.5,5.7-10,10.8-15.8,6.3c-4.7-3.6-5.6-11.9-6.4-17.3c-1-6.6-0.9-13.3-0.4-19.9
			c0.4-4.4,0.7-8.9,2.2-13.1c0.8-2.3,2-4.6,3.9-6.3c1.7-1.5,1.7-1.4,1.9,0.7c0.6,6.7-1.5,14.7-3.4,21c-3.7,12.1-10.4,27.3-24.5,29.5
			C586.6,310.1,587.2,313.2,589.3,313L589.3,313z"/>
	</g>
	<g>
		<path class="st3" d="M850.1,672.8c5.4-3.1,10.1-7,14.3-11.5c-0.9-0.6-1.8-1.3-2.7-1.9c-2.1,9.4-2.5,19.3,0.2,28.6
			c2.1,7.2,7.7,14.6,16,14c7.6-0.6,11.5-8.2,13.3-14.7c2.9-9.9,4.1-20.2,3.5-30.4c-0.1-2.4-3.9-1.8-3.7,0.7
			c0.6,8.4-0.5,16.9-2.5,25.1c-1.4,5.4-3.4,13.6-9.6,15.2c-8.5,2.3-13-7.7-14.4-14.2c-1.6-7.7-1.4-15.7,0.3-23.4
			c0.3-1.4-1.8-2.5-2.8-1.5c-4.2,4.4-8.8,8.1-13.8,11.5C847,671.2,848.6,673.7,850.1,672.8L850.1,672.8z"/>
	</g>
</g>
</svg>
